<svg xmlns="http://www.w3.org/2000/svg" width="590" height="211" viewBox="0 0 590 211">
    <defs>
        <style>
            .cls-2{fill:rgba(48,181,156,.2)}.cls-3{fill:#2c2e30}.cls-8{fill:none;stroke:#5a5b5d;stroke-width:1.5px}.cls-13{fill:#333537}.cls-14{fill:#1d1d1c}.cls-15{fill:#d5ce00}
        </style>
    </defs>
    <g id="utility_image02" transform="translate(-660 -555)">
        <path id="사각형_16218" data-name="사각형 16218" transform="translate(660 555)" style="fill:transparent" d="M0 0h590v211H0z"/>
        <circle id="타원_956" data-name="타원 956" class="cls-2" cx="52.5" cy="52.5" r="52.5" transform="translate(1055.794 606)"/>
        <circle id="타원_957" data-name="타원 957" class="cls-2" cx="43.5" cy="43.5" r="43.5" transform="translate(1064.794 615)"/>
        <circle id="타원_958" data-name="타원 958" class="cls-2" cx="32.5" cy="32.5" r="32.5" transform="translate(1075.794 626)"/>
        <g id="그룹_5832" data-name="그룹 5832" transform="translate(1114.397 612)">
            <rect id="사각형_16078" data-name="사각형 16078" class="cls-3" width="62.794" height="121.373" rx="12" transform="translate(0 -9)"/>
            <rect id="사각형_16073" data-name="사각형 16073" width="57.917" height="113.306" rx="10" transform="translate(2.439 -6.42)" style="fill:#dde2e8"/>
            <rect id="사각형_16075" data-name="사각형 16075" width="15.851" height="2.439" rx="1.219" transform="translate(23.776 -.748)" style="fill:#8b99a8"/>
            <rect id="사각형_16076" data-name="사각형 16076" width="49.382" height="48.162" rx="2" transform="translate(6.706 7.787)" style="fill:#121411"/>
            <circle id="타원_941" data-name="타원 941" class="cls-3" cx="10.974" cy="10.974" r="10.974" transform="translate(20.728 72.366)"/>
            <circle id="타원_942" data-name="타원 942" class="cls-3" cx="4.877" cy="4.877" r="4.877" transform="translate(6.706 62.983)"/>
            <circle id="타원_943" data-name="타원 943" class="cls-3" cx="4.877" cy="4.877" r="4.877" transform="translate(46.333 62.983)"/>
            <rect id="사각형_16077" data-name="사각형 16077" width="43.285" height="38.408" rx="2" transform="translate(9.754 10.226)" style="fill:#bfc9cf"/>
            <g id="그룹_5779" data-name="그룹 5779" transform="translate(29.792 75.069)">
                <g id="ic_arrow_bottom" transform="translate(0 14.632)">
                    <path id="패스_3499" data-name="패스 3499" class="cls-8" d="m1832 103 1.91 1.91 1.91-1.91" transform="translate(-1832 -103)"/>
                </g>
                <g id="ic_arrow_bottom-2" data-name="ic_arrow_bottom">
                    <path id="패스_3499-2" data-name="패스 3499" class="cls-8" d="m1832 104.91 1.91-1.91 1.91 1.91" transform="translate(-1832 -103)"/>
                </g>
            </g>
            <g id="그룹_5780" data-name="그룹 5780" transform="rotate(90 -20.729 60.702)">
                <g id="ic_arrow_bottom-3" data-name="ic_arrow_bottom" transform="translate(0 14.632)">
                    <path id="패스_3499-3" data-name="패스 3499" class="cls-8" d="m0 0 1.91 1.91L3.82 0"/>
                </g>
                <g id="ic_arrow_bottom-4" data-name="ic_arrow_bottom">
                    <path id="패스_3499-4" data-name="패스 3499" class="cls-8" d="M0 1.91 1.91 0l1.91 1.91"/>
                </g>
            </g>
        </g>
        <g id="그룹_5833" data-name="그룹 5833" transform="translate(-187 -124)">
            <g id="사각형_16182" data-name="사각형 16182" transform="translate(918 757)" style="fill:#eff2f7;stroke:#2f3b48;stroke-width:3px">
                <rect width="102" height="57" rx="5" style="stroke:none"/>
                <rect x="1.5" y="1.5" width="99" height="54" rx="3.5" style="fill:none"/>
            </g>
            <path id="사각형_16183" data-name="사각형 16183" d="M0 0h9a3 3 0 0 1 3 3v27a3 3 0 0 1-3 3H0V0z" transform="translate(1020 769)" style="fill:#2f3b48"/>
            <path id="사각형_16184" data-name="사각형 16184" transform="translate(930 766)" style="fill:rgba(48,181,156,.3)" d="M0 0h79v39H0z"/>
            <path id="패스_11025" data-name="패스 11025" d="m-767.813-19735.428-8.127 13.129h10.158l-8.439 12.654" transform="translate(1739.895 20508.033)" style="stroke:#1f8a76;stroke-width:5px;fill:none"/>
        </g>
        <g id="그룹_5782" data-name="그룹 5782" transform="translate(1022.794 635.688)">
            <path id="패스_10625" data-name="패스 10625" class="cls-13" d="m-145.068 595.12-18.281-6.1a3.328 3.328 0 0 1-2.629-3.257v-19.378a3.337 3.337 0 0 1 2.633-3.26l18.284-6.1z" transform="translate(165.981 -533.31)"/>
            <path id="패스_10626" data-name="패스 10626" class="cls-14" d="M-85.874 615.434h-48.632a6.667 6.667 0 0 1-6.667-6.668v-64.343a6.671 6.671 0 0 1 6.67-6.666h48.632a6.667 6.667 0 0 1 6.666 6.666v64.343a6.671 6.671 0 0 1-6.669 6.668z" transform="translate(162.086 -530.284)"/>
            <path id="패스_10627" data-name="패스 10627" class="cls-14" d="M-85.117 536.362h-47.437v-4.136a3.333 3.333 0 0 1 3.335-3.334h40.769a3.327 3.327 0 0 1 3.333 3.334z" transform="translate(160.732 -528.892)"/>
            <path id="패스_10628" data-name="패스 10628" class="cls-14" d="M-155.523 575.667h-10.453v-3.937h10.453z" transform="translate(165.98 -535.619)"/>
            <path id="패스_10629" data-name="패스 10629" class="cls-14" d="M-155.522 586.618h-10.453v-3.937h10.453z" transform="translate(165.98 -537.338)"/>
            <path id="패스_10630" data-name="패스 10630" class="cls-13" d="m-67.662 557.027 18.282 6.1a3.336 3.336 0 0 1 2.63 3.26v19.377a3.327 3.327 0 0 1-2.633 3.257l-18.278 6.1z" transform="translate(150.542 -533.31)"/>
            <path id="패스_10631" data-name="패스 10631" class="cls-14" d="M-55.259 582.841h10.453v3.938h-10.452z" transform="translate(148.595 -537.363)"/>
            <path id="패스_10632" data-name="패스 10632" class="cls-14" d="M-55.26 571.892h10.46v3.937h-10.459z" transform="translate(148.595 -535.644)"/>
            <circle id="타원_771" data-name="타원 771" class="cls-15" cx="2.353" cy="2.353" r="2.353" transform="rotate(-41.55 53.582 -73.055)"/>
            <circle id="타원_772" data-name="타원 772" class="cls-15" cx="2.353" cy="2.353" r="2.353" transform="rotate(-41.55 57.114 -82.36)"/>
        </g>
        <g id="그룹_5840" data-name="그룹 5840" transform="translate(6 47)">
            <circle id="타원_960" data-name="타원 960" cx="5" cy="5" r="5" transform="translate(862 610)" style="fill:#30b59c"/>
            <circle id="타원_963" data-name="타원 963" cx="5" cy="5" r="5" transform="translate(910 610)" style="opacity:.6;fill:#30b59c"/>
            <circle id="타원_964" data-name="타원 964" cx="5" cy="5" r="5" transform="translate(959 610)" style="opacity:.2;fill:#30b59c"/>
            <circle id="타원_961" data-name="타원 961" cx="5" cy="5" r="5" transform="translate(886 610)" style="opacity:.8;fill:#30b59c"/>
            <circle id="타원_962" data-name="타원 962" cx="5" cy="5" r="5" transform="translate(935 610)" style="opacity:.4;fill:#30b59c"/>
            <circle id="타원_965" data-name="타원 965" cx="5" cy="5" r="5" transform="translate(983 610)" style="opacity:.1;fill:#30b59c"/>
        </g>
    </g>
</svg>
