<svg xmlns="http://www.w3.org/2000/svg" width="40" height="40" viewBox="0 0 40 40">
    <defs>
        <style>
            .cls-3{fill:none}.cls-4{fill:#0e0e0e}
        </style>
    </defs>
    <g id="ic_person_40" transform="translate(-643 -404)">
        <g id="ic_mypage" transform="translate(651 412)">
            <g id="그룹_3071" data-name="그룹 3071" transform="translate(-108.033 -456.084)">
                <path id="패스_4003" data-name="패스 4003" class="cls-3" d="m114.664 470.334-4.125 8.25h18.99l-4.125-8.25z"/>
                <path id="패스_4004" data-name="패스 4004" class="cls-3" d="M120.033 467.084a4.738 4.738 0 0 0 4.677-4.026 4.74 4.74 0 1 1-4.981-5.443 4.739 4.739 0 0 0 .3 9.469z"/>
                <circle id="타원_700" data-name="타원 700" class="cls-3" cx="3.25" cy="3.25" r="3.25" transform="translate(116.783 459.084)"/>
                <path id="패스_4005" data-name="패스 4005" class="cls-3" d="M124.7 461.533a4.727 4.727 0 0 0-4.211-3.9 4.735 4.735 0 0 1 4.211 3.9z"/>
                <path id="패스_4006" data-name="패스 4006" class="cls-4" d="M120.491 457.63c-.153-.015-.3-.046-.458-.046-.1 0-.2.024-.3.031.1-.007.2-.031.3-.031.157 0 .305.031.458.046z"/>
                <path id="패스_4007" data-name="패스 4007" class="cls-4" d="M124.71 463.058a3.815 3.815 0 0 0-.008-1.525 3.815 3.815 0 0 1 .008 1.525z"/>
                <path id="패스_4008" data-name="패스 4008" class="cls-4" d="M115.283 462.334a4.741 4.741 0 0 0 9.427.724 3.815 3.815 0 0 0-.008-1.525 4.735 4.735 0 0 0-4.211-3.9c-.153-.015-.3-.046-.458-.046-.1 0-.2.024-.3.031a4.742 4.742 0 0 0-4.45 4.716zm4.75-3.25a3.25 3.25 0 1 1-3.25 3.25 3.254 3.254 0 0 1 3.25-3.25z"/>
                <path id="패스_4009" data-name="패스 4009" class="cls-4" d="M114.664 470.334H125.4l4.125 8.25h1.675l-4.667-9.333a.749.749 0 0 0-.671-.415H114.2a.749.749 0 0 0-.671.415l-4.667 9.333h1.672z"/>
            </g>
        </g>
    </g>
</svg>
