<svg xmlns="http://www.w3.org/2000/svg" width="24" height="27.001">
    <defs>
        <style>
            .cls-2{fill:none}.cls-3{fill:#8ea0b4}.cls-4{fill:#153863}
        </style>
    </defs>
    <g id="ic_menu_10_navy" transform="translate(-33.5 -915.998)">
        <g id="그룹_2774" data-name="그룹 2774" transform="translate(912.092 801.39)">
            <path id="패스_3935" data-name="패스 3935" class="cls-2" d="M-878.592 134c0 .019.007.037.007.056 0-.019-.007-.037-.007-.057z"/>
            <path id="패스_3936" data-name="패스 3936" class="cls-2" d="M-878.592 122.219c0-.022.008-.042.008-.064 0 .022-.008.045-.008.064z"/>
            <path id="패스_3937" data-name="패스 3937" class="cls-2" d="m-855.458 135.488-10.268 5.89a1.737 1.737 0 0 1-.866.231 1.737 1.737 0 0 1-.866-.231l-10.268-5.89a1.723 1.723 0 0 1-.634-.629 1.718 1.718 0 0 0 .634.63l10.268 5.89a1.744 1.744 0 0 0 1.732 0l10.268-5.89a1.708 1.708 0 0 0 .633-.63 1.713 1.713 0 0 1-.633.629z"/>
            <path id="패스_3938" data-name="패스 3938" class="cls-2" d="m-877.726 120.729 10.268-5.89a1.744 1.744 0 0 1 1.732 0l10.268 5.89a1.713 1.713 0 0 1 .633.629 1.7 1.7 0 0 0-.633-.629l-10.268-5.89a1.739 1.739 0 0 0-1.732 0l-10.268 5.89a1.716 1.716 0 0 0-.634.629 1.723 1.723 0 0 1 .634-.629z"/>
            <path id="패스_3939" data-name="패스 3939" class="cls-3" d="M-854.592 122.219a1.707 1.707 0 0 0-.233-.861 1.717 1.717 0 0 1 .233.861V134a1.716 1.716 0 0 1-.233.86 1.707 1.707 0 0 0 .233-.861z"/>
            <path id="패스_3940" data-name="패스 3940" class="cls-3" d="M-878.36 134.859a1.714 1.714 0 0 1-.225-.8 1.714 1.714 0 0 0 .225.8z"/>
            <path id="패스_3941" data-name="패스 3941" class="cls-3" d="M-878.584 122.155a1.724 1.724 0 0 1 .224-.8 1.712 1.712 0 0 0-.224.8z"/>
            <path id="패스_3942" data-name="패스 3942" class="cls-4" d="M-854.592 122.219a1.717 1.717 0 0 0-.233-.861 1.713 1.713 0 0 0-.633-.629l-10.268-5.89a1.744 1.744 0 0 0-1.732 0l-10.268 5.89a1.723 1.723 0 0 0-.634.629 1.724 1.724 0 0 0-.224.8c0 .022-.008.042-.008.064V134c0 .02.007.038.007.057a1.714 1.714 0 0 0 .225.8 1.723 1.723 0 0 0 .634.629l10.268 5.89a1.737 1.737 0 0 0 .866.231 1.737 1.737 0 0 0 .866-.231l10.268-5.89a1.713 1.713 0 0 0 .633-.629 1.716 1.716 0 0 0 .233-.86zm-11.19 10.9a4.909 4.909 0 0 1-.81.082 5.058 5.058 0 0 1-.733-.074 4.986 4.986 0 0 1-4.267-4.926 5 5 0 0 1 5-5 4.986 4.986 0 0 1 4.969 4.692c.006.1.031.2.031.308 0 .159-.032.308-.047.463a4.974 4.974 0 0 1-4.143 4.454z"/>
            <circle id="타원_666" data-name="타원 666" class="cls-4" cx="3.5" cy="3.5" r="3.5" transform="translate(-870.092 124.7)"/>
            <path id="패스_3943" data-name="패스 3943" class="cls-3" d="M-871.592 128.2a5.006 5.006 0 0 1 5-5 4.993 4.993 0 0 1 4.969 4.692 4.986 4.986 0 0 0-4.969-4.692 5 5 0 0 0-5 5 4.986 4.986 0 0 0 4.267 4.926 4.993 4.993 0 0 1-4.267-4.926z"/>
            <path id="패스_3944" data-name="패스 3944" class="cls-3" d="M-865.782 133.118a4.974 4.974 0 0 0 4.143-4.455 4.982 4.982 0 0 1-4.143 4.455z"/>
            <path id="패스_3945" data-name="패스 3945" class="cls-3" d="M-867.325 133.126a5.058 5.058 0 0 0 .733.074 4.909 4.909 0 0 0 .81-.082 5.02 5.02 0 0 1-.81.082 5.058 5.058 0 0 1-.733-.074z"/>
            <path id="패스_3946" data-name="패스 3946" class="cls-3" d="M-861.623 127.892c.006.1.031.2.031.308 0 .158-.032.308-.047.463.015-.155.047-.3.047-.463 0-.106-.025-.2-.031-.308z"/>
        </g>
    </g>
</svg>
