<svg id="ic_menu_12_n" xmlns="http://www.w3.org/2000/svg" width="28" height="24" viewBox="0 0 28 24">
    <defs>
        <style>
            .cls-2,.cls-3,.cls-6{fill:none}.cls-2{stroke:#a1afc0;stroke-width:1.5px}.cls-4{fill:#a1afc0}.cls-5,.cls-7{stroke:none}.cls-7{fill:#a1afc0}
        </style>
    </defs>
    <path id="사각형_17437" data-name="사각형 17437" style="fill:transparent" d="M0 0h28v24H0z"/>
    <g id="타원_981" data-name="타원 981" class="cls-2" transform="translate(14.25 3.752)">
        <circle class="cls-5" cx="2.375" cy="2.375" r="2.375"/>
        <circle class="cls-6" cx="2.375" cy="2.375" r="1.625"/>
    </g>
    <g id="사각형_17442" data-name="사각형 17442" class="cls-2" transform="translate(6 1.002)">
        <rect class="cls-5" width="16" height="22" rx=".5"/>
        <rect class="cls-6" x=".75" y=".75" width="14.5" height="20.5" rx=".25"/>
    </g>
    <g id="패스_11309" data-name="패스 11309" class="cls-3">
        <path class="cls-5" d="M.577-.007 7.5-2.049v15L.577 10.958a.542.542 0 0 1-.577-.5V.492a.542.542 0 0 1 .577-.499z" transform="translate(0 7.002)"/>
        <path class="cls-7" d="M6-.042 1.5 1.285v8.378L6 10.958v-11M7.5-2.05v15L.577 10.958c-.319 0-.577-.223-.577-.499V.492c0-.276.258-.499.577-.499L7.5-2.049z" transform="translate(0 7.002)"/>
    </g>
    <g id="패스_11310" data-name="패스 11310" class="cls-3">
        <path class="cls-5" d="M6.923 0 0-2v15l6.923-2a.543.543 0 0 0 .577-.5V.5a.543.543 0 0 0-.577-.5z" transform="translate(20.5 7.002)"/>
        <path class="cls-7" d="M1.5-.005v11.01l4.5-1.3v-8.41l-4.5-1.3M0-2l6.923 2c.319 0 .577.224.577.5v10c0 .276-.258.5-.577.5L0 13V-2z" transform="translate(20.5 7.002)"/>
    </g>
    <path id="사각형_17440" data-name="사각형 17440" class="cls-4" transform="translate(0 9.953)" d="M0 0h3v1.5H0z"/>
    <path id="사각형_17445" data-name="사각형 17445" class="cls-4" transform="translate(25 9.953)" d="M0 0h3v1.5H0z"/>
    <path id="사각형_17443" data-name="사각형 17443" class="cls-4" transform="translate(0 13.453)" d="M0 0h3v1.5H0z"/>
    <path id="사각형_17444" data-name="사각형 17444" class="cls-4" transform="translate(25 13.453)" d="M0 0h3v1.5H0z"/>
</svg>
