<svg id="ic_menu_10_n" xmlns="http://www.w3.org/2000/svg" width="24" height="27.002">
    <defs>
        <style>
            .cls-4{stroke:none}
        </style>
    </defs>
    <g id="타원_443" data-name="타원 443" transform="translate(7 8.593)" style="stroke:#a1afc0;stroke-width:1.5px;fill:none">
        <circle class="cls-4" cx="5" cy="5" r="5"/>
        <circle cx="5" cy="5" r="4.25" style="fill:none"/>
    </g>
    <g id="패스_3916" data-name="패스 3916" style="fill:none">
        <path class="cls-4" d="M-415.019 42.574v-11.78a1.719 1.719 0 0 0-.866-1.49l-10.268-5.89a1.742 1.742 0 0 0-1.732 0l-10.268 5.89a1.719 1.719 0 0 0-.866 1.49v11.78a1.719 1.719 0 0 0 .866 1.49l10.268 5.89a1.742 1.742 0 0 0 1.732 0l10.268-5.89a1.719 1.719 0 0 0 .866-1.49z" transform="translate(439.019 -23.182)"/>
        <path d="M-427.019 48.684c.03 0 .074-.005.12-.032l10.268-5.89a.22.22 0 0 0 .112-.188v-11.78a.22.22 0 0 0-.112-.189l-10.268-5.89a.24.24 0 0 0-.24 0l-10.267 5.89a.22.22 0 0 0-.113.19v11.779c0 .076.043.149.112.189l10.268 5.89a.24.24 0 0 0 .12.031m0 1.5c-.299 0-.598-.077-.866-.23l-10.268-5.89a1.719 1.719 0 0 1-.866-1.49v-11.78c0-.615.33-1.182.866-1.49l10.268-5.89a1.742 1.742 0 0 1 1.732 0l10.268 5.89c.536.308.866.875.866 1.49v11.78c0 .615-.33 1.182-.866 1.49l-10.268 5.89a1.74 1.74 0 0 1-.866.23z" style="fill:#a1afc0;stroke:none" transform="translate(439.019 -23.182)"/>
    </g>
</svg>
