<svg id="ic_menu_6_n" xmlns="http://www.w3.org/2000/svg" width="24" height="24">
    <defs>
        <style>
            .cls-3{fill:#fff}.cls-2,.cls-5{fill:none}.cls-2,.cls-3{stroke:#a1afc0}.cls-2{stroke-width:1.5px}.cls-4{stroke:none}
        </style>
    </defs>
    <g id="사각형_6896" data-name="사각형 6896" class="cls-2" transform="translate(1.999 2)">
        <rect class="cls-4" width="20" height="20" rx=".5"/>
        <rect class="cls-5" x=".75" y=".75" width="18.5" height="18.5" rx=".25"/>
    </g>
    <g id="사각형_6792" data-name="사각형 6792" class="cls-2" transform="translate(6.749 6.75)">
        <rect class="cls-4" width="10.5" height="10.5" rx=".5"/>
        <rect class="cls-5" x=".75" y=".75" width="9" height="9" rx=".25"/>
    </g>
    <g id="사각형_6897" data-name="사각형 6897" class="cls-3">
        <path class="cls-4" d="M0 0h2v1.5H0z" transform="rotate(90 3.93 3.93)"/>
        <path class="cls-5" d="M.5.5h1V1h-1z" transform="rotate(90 3.93 3.93)"/>
    </g>
    <g id="사각형_6916" data-name="사각형 6916" class="cls-3">
        <path class="cls-4" d="M0 0h2v1.5H0z" transform="rotate(90 -7.07 14.93)"/>
        <path class="cls-5" d="M.5.5h1V1h-1z" transform="rotate(90 -7.07 14.93)"/>
    </g>
    <g id="사각형_6898" data-name="사각형 6898" class="cls-3">
        <path class="cls-4" d="M0 0h2v1.5H0z" transform="rotate(90 6.375 6.375)"/>
        <path class="cls-5" d="M.5.5h1V1h-1z" transform="rotate(90 6.375 6.375)"/>
    </g>
    <g id="사각형_6915" data-name="사각형 6915" class="cls-3">
        <path class="cls-4" d="M0 0h2v1.5H0z" transform="rotate(90 -4.625 17.375)"/>
        <path class="cls-5" d="M.5.5h1V1h-1z" transform="rotate(90 -4.625 17.375)"/>
    </g>
    <g id="사각형_6899" data-name="사각형 6899" class="cls-3">
        <path class="cls-4" d="M0 0h2v1.5H0z" transform="rotate(90 8.82 8.82)"/>
        <path class="cls-5" d="M.5.5h1V1h-1z" transform="rotate(90 8.82 8.82)"/>
    </g>
    <g id="사각형_6914" data-name="사각형 6914" class="cls-3">
        <path class="cls-4" d="M0 0h2v1.5H0z" transform="rotate(90 -2.18 19.82)"/>
        <path class="cls-5" d="M.5.5h1V1h-1z" transform="rotate(90 -2.18 19.82)"/>
    </g>
    <g id="사각형_6913" data-name="사각형 6913" class="cls-2" transform="translate(6.808 10.94)">
        <rect class="cls-4" width="6.251" height="6.251" rx=".5"/>
        <rect class="cls-5" x=".75" y=".75" width="4.751" height="4.751" rx=".25"/>
    </g>
    <g id="사각형_6917" data-name="사각형 6917" class="cls-3">
        <path class="cls-4" d="M0 0h2v1.5H0z" transform="rotate(180 12 3.93)"/>
        <path class="cls-5" d="M.5.5h1V1h-1z" transform="rotate(180 12 3.93)"/>
    </g>
    <g id="사각형_6918" data-name="사각형 6918" class="cls-3">
        <path class="cls-4" d="M0 0h2v1.5H0z" transform="rotate(180 1 3.93)"/>
        <path class="cls-5" d="M.5.5h1V1h-1z" transform="rotate(180 1 3.93)"/>
    </g>
    <g id="사각형_6919" data-name="사각형 6919" class="cls-3">
        <path class="cls-4" d="M0 0h2v1.5H0z" transform="rotate(180 12 6.375)"/>
        <path class="cls-5" d="M.5.5h1V1h-1z" transform="rotate(180 12 6.375)"/>
    </g>
    <g id="사각형_6920" data-name="사각형 6920" class="cls-3">
        <path class="cls-4" d="M0 0h2v1.5H0z" transform="rotate(180 1 6.375)"/>
        <path class="cls-5" d="M.5.5h1V1h-1z" transform="rotate(180 1 6.375)"/>
    </g>
    <g id="사각형_6921" data-name="사각형 6921" class="cls-3">
        <path class="cls-4" d="M0 0h2v1.5H0z" transform="rotate(180 12 8.82)"/>
        <path class="cls-5" d="M.5.5h1V1h-1z" transform="rotate(180 12 8.82)"/>
    </g>
    <g id="사각형_6922" data-name="사각형 6922" class="cls-3">
        <path class="cls-4" d="M0 0h2v1.5H0z" transform="rotate(180 1 8.82)"/>
        <path class="cls-5" d="M.5.5h1V1h-1z" transform="rotate(180 1 8.82)"/>
    </g>
</svg>
