<svg id="ic_editpassword" xmlns="http://www.w3.org/2000/svg" width="24" height="24">
    <defs>
        <style>
            .cls-1,.cls-2{fill:none}.cls-2{stroke:#000;stroke-width:1.5px}.cls-4{stroke:none}
        </style>
    </defs>
    <path id="사각형_6493" data-name="사각형 6493" class="cls-1" d="M0 0h24v24H0z"/>
    <path id="사각형_6505" data-name="사각형 6505" class="cls-1" transform="translate(3 3)" d="M0 0h12v12H0z"/>
    <g id="사각형_6508" data-name="사각형 6508" class="cls-2" transform="translate(4 8.75)">
        <rect class="cls-4" width="16" height="13" rx="1"/>
        <rect class="cls-1" x=".75" y=".75" width="14.5" height="11.5" rx=".25"/>
    </g>
    <g id="사각형_6509" data-name="사각형 6509" class="cls-2">
        <path class="cls-4" d="M4.5 0A4.5 4.5 0 0 1 9 4.5V8H0V4.5A4.5 4.5 0 0 1 4.5 0z" transform="translate(7.5 2.25)"/>
        <path class="cls-1" d="M4.5.75A3.75 3.75 0 0 1 8.25 4.5v2.088a.662.662 0 0 1-.662.662H1.412a.662.662 0 0 1-.662-.662V4.5A3.75 3.75 0 0 1 4.5.75z" transform="translate(7.5 2.25)"/>
    </g>
    <g id="사각형_6510" data-name="사각형 6510" transform="translate(11.25 13.5)" style="fill:#fff;stroke:#000">
        <rect class="cls-4" width="1.5" height="4" rx=".75"/>
        <rect class="cls-1" x=".5" y=".5" width=".5" height="3" rx=".25"/>
    </g>
</svg>
