<svg xmlns="http://www.w3.org/2000/svg" width="24" height="24">
    <path data-name="제외 2" d="M5229-2563.377h-14a1 1 0 0 1-1-1v-8h.008a.978.978 0 0 1 .313-.726l6.991-6.622a.994.994 0 0 1 .688-.275.994.994 0 0 1 .688.275l6.989 6.622a.976.976 0 0 1 .315.726h.008v8a1 1 0 0 1-1 1zm-7.5-9.311a2 2 0 0 0-2 2v1a2 2 0 0 0 2 2h1a2 2 0 0 0 2-2v-1a2 2 0 0 0-2-2z" transform="translate(-5210 2583.188)" style="fill:#111;stroke:#111;stroke-linecap:round;stroke-linejoin:round;stroke-width:1.5px"/>
    <path data-name="사각형 11132" style="fill:none" d="M0 0h24v24H0z"/>
</svg>
