<svg xmlns="http://www.w3.org/2000/svg" width="24" height="24">
    <defs>
        <style>
            .cls-2,.cls-3{fill:#4264d0}.cls-3{stroke:#fff;stroke-width:1.5px}.cls-4,.cls-5{stroke:none}.cls-5{fill:#fff}.cls-6{fill:none}
        </style>
    </defs>
    <g id="ic_megaphone_24" transform="translate(-887 -440)">
        <rect id="사각형_14170" data-name="사각형 14170" width="24" height="24" rx="5" transform="translate(887 440)" style="fill:#4264d0"/>
        <g id="ic_megaphone" transform="translate(-465.42 20.98)">
            <g id="패스_10967" data-name="패스 10967" class="cls-2">
                <path class="cls-4" d="M3.5 6.25A2.753 2.753 0 0 1 .75 3.5 2.753 2.753 0 0 1 3.5.75 2.753 2.753 0 0 1 6.25 3.5 2.753 2.753 0 0 1 3.5 6.25z" transform="translate(1365.921 427.02)"/>
                <path class="cls-5" d="M3.5 1.5c-1.103 0-2 .897-2 2s.897 2 2 2 2-.897 2-2-.897-2-2-2m0-1.5a3.5 3.5 0 1 1 0 7 3.5 3.5 0 0 1 0-7z" transform="translate(1365.921 427.02)"/>
            </g>
            <g id="패스_10962" data-name="패스 10962" class="cls-2">
                <path class="cls-4" d="M8.75 8.588 1.066 4.755l-.159-.08H.762a.11.11 0 0 1-.012-.051V-.188A.11.11 0 0 1 .762-.24h.145l.159-.079L8.75-4.152v12.74z" transform="translate(1360.01 428)"/>
                <path class="cls-5" d="M8-2.94 1.5.303v3.83L8 7.376V-2.94M8.77-5c.403 0 .73.36.73.802V8.634c0 .443-.327.802-.73.802L.73 5.426c-.403 0-.73-.36-.73-.802V-.188C0-.631.327-.99.73-.99L8.77-5z" transform="translate(1360.01 428)"/>
            </g>
            <g id="사각형_14169" data-name="사각형 14169" class="cls-3" transform="translate(1357.921 432.02)">
                <rect class="cls-4" width="4" height="7" rx="1"/>
                <rect class="cls-6" x=".75" y=".75" width="2.5" height="5.5" rx=".25"/>
            </g>
            <g id="사각형_14168" data-name="사각형 14168" class="cls-3">
                <path class="cls-4" d="M3 0h2.25A.75.75 0 0 1 6 .75v4.5a.75.75 0 0 1-.75.75H3a3 3 0 0 1-3-3 3 3 0 0 1 3-3z" transform="translate(1355.921 427.02)"/>
                <path class="cls-6" d="M3 .75h2.077a.173.173 0 0 1 .173.173v4.154a.173.173 0 0 1-.173.173H3A2.25 2.25 0 0 1 .75 3 2.25 2.25 0 0 1 3 .75z" transform="translate(1355.921 427.02)"/>
            </g>
        </g>
    </g>
</svg>
