<svg id="ic_place" xmlns="http://www.w3.org/2000/svg" width="20" height="24">
    <defs>
        <style>
            .cls-2{fill:none;stroke:#111;stroke-width:1.5px}
        </style>
    </defs>
    <path id="사각형_6645" data-name="사각형 6645" style="fill:none" d="M0 0h20v24H0z"/>
    <path id="선_77" data-name="선 77" class="cls-2" transform="translate(1.5 19.5)" d="M0 0h13"/>
    <g id="그룹_2642" data-name="그룹 2642" transform="translate(3.426 3.969)">
        <path id="패스_3880" data-name="패스 3880" class="cls-2" d="M421.8 505.387a4.612 4.612 0 0 1 4.557 4.213 5.931 5.931 0 0 1-.655 2.973 22.787 22.787 0 0 1-3.553 5.285.412.412 0 0 1-.7.011 22.152 22.152 0 0 1-3.685-5.576 5.713 5.713 0 0 1-.529-2.777 4.618 4.618 0 0 1 3.9-4.065c.225-.026.446-.043.665-.064z" transform="translate(-417.224 -505.387)"/>
    </g>
</svg>
