<svg xmlns="http://www.w3.org/2000/svg" width="24" height="24">
    <defs>
        <clipPath id="clip-path">
            <path id="사각형_9410" data-name="사각형 9410" transform="translate(1692.804 375)" style="fill:#e9ebf0;opacity:.003" d="M0 0h24v24H0z"/>
        </clipPath>
        <style>
            .cls-7{fill:none}.cls-5{stroke:#4951a5;fill:#fff}.cls-6{stroke:none}
        </style>
    </defs>
    <g id="ic_reload_24" transform="translate(-1692.804 -375)" style="clip-path:url(#clip-path)">
        <g id="타원_499" data-name="타원 499" transform="rotate(30 145.044 3364.743)" style="stroke-width:1.5px;stroke:#4951a5;fill:none">
            <circle class="cls-6" cx="7" cy="7" r="7"/>
            <circle class="cls-7" cx="7" cy="7" r="6.25"/>
        </g>
        <path id="사각형_7242" data-name="사각형 7242" transform="rotate(-30 1571.42 -2983.475)" style="fill:#fff" d="M0 0h8v4H0z"/>
        <g id="그룹_2704" data-name="그룹 2704" transform="rotate(-14.98 1815.082 456.964)">
            <g id="사각형_7243" data-name="사각형 7243" class="cls-5">
                <path class="cls-6" d="M0 0h5v1.5H0z" transform="translate(1727 357)"/>
                <path class="cls-7" d="M.5.5h4V1h-4z" transform="translate(1727 357)"/>
            </g>
            <g id="사각형_7244" data-name="사각형 7244" class="cls-5">
                <path class="cls-6" d="M0 0h5v1.5H0z" transform="rotate(90 689.25 1042.75)"/>
                <path class="cls-7" d="M.5.5h4V1h-4z" transform="rotate(90 689.25 1042.75)"/>
            </g>
        </g>
    </g>
</svg>
