<svg xmlns="http://www.w3.org/2000/svg" width="170" height="40" viewBox="0 0 170 40">
    <defs>
        <style>
            .cls-2{fill:#fff}
        </style>
    </defs>
    <g id="ic_Uguard_white" transform="translate(-610 -316)">
        <path id="사각형_16735" data-name="사각형 16735" transform="translate(610 316)" style="fill:transparent" d="M0 0h169.795v40H0z"/>
        <g id="그룹_3135" data-name="그룹 3135" transform="translate(612 318.221)">
            <path id="패스_3987" data-name="패스 3987" class="cls-2" d="M22.14 10.426a12.569 12.569 0 0 1-5.822 1.374c-6.336 0-9.59-3.257-9.59-8.06 0-7.016 4.966-12.487 12.758-12.487 3.639 0 6.293.961 8.262 3.3L31.773-8.7c-2.483-3.09-6.55-4.8-12.03-4.8C8.441-13.5 1.12-5.819 1.12 4.078c0 7.434 5.565 12.487 14.556 12.487a18.539 18.539 0 0 0 11.174-3.592L29.29 1.2h-5.266zm30.1-16.58-2.4 11.568c-.9 4.343-3.6 6.431-7.406 6.431-3.04 0-4.538-1.462-4.538-4.051a8.269 8.269 0 0 1 .171-1.712l2.525-12.235H35.24L32.714 6.208a12.148 12.148 0 0 0-.3 2.673c0 4.886 3.339 7.559 8.263 7.559a11.341 11.341 0 0 0 7.749-2.756l-.514 2.464h5.094l4.581-22.3zm27.185 0-.642 3.3c-1.541-2.38-4.238-3.55-7.792-3.55A12.588 12.588 0 0 0 58.1 6.626c0 6.181 4.452 9.814 10.061 9.814a11.088 11.088 0 0 0 7.449-2.589l-.471 2.3h5.095l4.538-22.3zm-9.893 18.125c-3.853 0-6.036-2.13-6.036-5.6 0-4.928 3.339-8.352 7.877-8.352 3.853 0 6.036 2.13 6.036 5.6 0 4.928-3.339 8.352-7.877 8.352zM94.148-3.272l.6-2.882h-5.095l-4.538 22.3h5.351l2.269-10.982c.942-4.636 3.725-6.724 7.92-6.724a6.808 6.808 0 0 1 1.327.125l.985-4.97c-3.853.005-6.721.794-8.819 3.133zm29.711-11.568-2.44 11.9c-1.5-2.3-4.238-3.466-7.792-3.466-7.321 0-12.843 5.429-12.843 13.03 0 6.181 4.41 9.814 10.061 9.814a11.186 11.186 0 0 0 7.406-2.589l-.471 2.3h5.094l6.336-30.989zm-11.645 26.811c-3.853 0-6.036-2.13-6.036-5.6 0-4.928 3.3-8.352 7.834-8.352 3.853 0 6.036 2.13 6.036 5.6.001 4.928-3.296 8.352-7.834 8.352z" transform="translate(38.79 17.323)"/>
            <ellipse id="타원_469" data-name="타원 469" cx="18.195" cy="17.8" rx="18.195" ry="17.8" style="fill:none;stroke:#fff;stroke-width:3px"/>
            <path id="패스_3995" data-name="패스 3995" class="cls-2" d="M19.009-9.612 16.852.657c-.809 3.855-3.237 5.709-6.666 5.709-2.736 0-4.084-1.3-4.084-3.6a7.243 7.243 0 0 1 .154-1.52L8.529-9.612H3.713L1.44 1.361a10.642 10.642 0 0 0-.27 2.373c0 4.337 3.005 6.71 7.436 6.71A10.293 10.293 0 0 0 15.58 8l-.462 2.187H19.7l4.123-19.8z" transform="translate(6.446 17.934)"/>
            <path id="패스_4053" data-name="패스 4053" class="cls-2" d="m0 0 4.8.111-.083 32.114-4.705.021z" transform="rotate(11 -3.13 138.77)"/>
        </g>
    </g>
</svg>
