<svg xmlns="http://www.w3.org/2000/svg" width="72" height="38" viewBox="0 0 72 38">
    <defs>
        <style>
            .cls-2{fill:#fff}
        </style>
    </defs>
    <g id="logo_white" transform="translate(-727 -1021)">
        <path id="사각형_16739" data-name="사각형 16739" transform="translate(727 1021)" style="fill:transparent" d="M0 0h72v38H0z"/>
        <g id="logo_white-2" data-name="logo_white" transform="translate(703.551 987.5)">
            <g id="logo" transform="translate(25 37.5)">
                <g id="그룹_2219" data-name="그룹 2219">
                    <circle id="타원_936" data-name="타원 936" class="cls-2" cx="14.645" cy="14.645" r="14.645"/>
                    <g id="그룹_2217" data-name="그룹 2217" transform="translate(1.395 1.744)">
                        <g id="그룹_2216" data-name="그룹 2216">
                            <g id="그룹_2215" data-name="그룹 2215">
                                <g id="그룹_2214" data-name="그룹 2214">
                                    <g id="그룹_2213" data-name="그룹 2213">
                                        <g id="그룹_2211" data-name="그룹 2211">
                                            <path id="패스_3499" data-name="패스 3499" d="M63.772 19.769a4.6 4.6 0 0 0-6.538 1.372 4.6 4.6 0 0 1-8.318-1.265l-.012-.048c0-.02-.011-.039-.016-.059a5.906 5.906 0 0 1-.235-1.828c0-4.124 4.23-8.714 10.323-8.714A11.618 11.618 0 0 1 69.7 16.618l-.046-.141a13.14 13.14 0 0 0-25.566 4.263c0 6.486 4.678 12.038 11.167 12.038a10.554 10.554 0 0 0 10.249-6.9 5.064 5.064 0 0 0-1.732-6.109z" transform="translate(-44.088 -7.602)" style="fill:#002b51"/>
                                        </g>
                                        <g id="그룹_2212" data-name="그룹 2212" transform="translate(4.563 1.626)">
                                            <path id="패스_3500" data-name="패스 3500" d="M82.974 21.574a11.582 11.582 0 0 0-10.81-7.646c-6.094 0-10.323 4.59-10.323 8.714a5.906 5.906 0 0 0 .235 1.828 3.868 3.868 0 0 1-.121-.937c0-4.294 4.3-7.27 8.719-7.27a10.832 10.832 0 0 1 10.832 10.832 11.941 11.941 0 0 1-6.62 10.7 13.143 13.143 0 0 0 8.666-12.355 12.966 12.966 0 0 0-.578-3.866z" transform="translate(-61.84 -13.928)" style="fill:#da0021"/>
                                        </g>
                                    </g>
                                </g>
                            </g>
                        </g>
                    </g>
                    <g id="그룹_2218" data-name="그룹 2218" transform="translate(34.896 9.656)">
                        <path id="패스_3501" data-name="패스 3501" class="cls-2" d="M179.971 43.245h-5.557v-4.7h1.26v1.213h3.026v-1.21h1.271zm-4.839.86h1.283v1.036h5.685v-1.036h1.283v4.568h-8.254zm3.568-3.249h-3.026v1.318h3.026zm3.4 5.31h-5.687v1.448h5.687zm-.023-7.783h1.307v4.992h-1.307v-2.013h-1.531v-1.143h1.531z" transform="translate(-174.414 -38.383)"/>
                        <path id="패스_3502" data-name="패스 3502" class="cls-2" d="M219.978 47.061v-1.154h9.654v1.154h-4.179v2.708h-1.307v-2.708zm.777-7.489h8.1v4.686h-8.1zm6.806 1.142h-5.523v2.4h5.523z" transform="translate(-208.266 -39.266)"/>
                        <path id="패스_3503" data-name="패스 3503" class="cls-2" d="M266.454 45.505h9.654v1.154h-4.18v2.708h-1.306v-2.708h-4.168zm2.06-5.134h5.523v-1.33h1.295v5.051h-8.1v-5.051h1.283zm5.523 1.13h-5.523v1.449h5.523z" transform="translate(-242.795 -38.872)"/>
                    </g>
                </g>
            </g>
        </g>
    </g>
</svg>
