<svg xmlns="http://www.w3.org/2000/svg" width="179.96" height="36.56">
    <defs>
        <style>
            .cls-3{fill:#464545}.cls-4{fill:#111}
        </style>
    </defs>
    <g id="logo" transform="translate(-40 -92.72)">
        <g id="그룹_2219" data-name="그룹 2219" transform="translate(-4.088 85.118)">
            <g id="그룹_2217" data-name="그룹 2217" transform="translate(44.088 7.602)">
                <g id="그룹_2216" data-name="그룹 2216">
                    <g id="그룹_2215" data-name="그룹 2215">
                        <g id="그룹_2214" data-name="그룹 2214">
                            <g id="그룹_2213" data-name="그룹 2213">
                                <g id="그룹_2211" data-name="그룹 2211">
                                    <path id="패스_3499" data-name="패스 3499" d="M72.314 25.049a6.591 6.591 0 0 0-9.376 1.968A6.6 6.6 0 0 1 51.011 25.2l-.017-.069-.023-.084a8.469 8.469 0 0 1-.337-2.621c0-5.913 6.065-12.5 14.8-12.5a16.66 16.66 0 0 1 15.384 10.6l-.066-.2a18.843 18.843 0 0 0-36.665 6.112c0 9.3 6.708 17.262 16.013 17.262a15.134 15.134 0 0 0 14.7-9.9 7.262 7.262 0 0 0-2.486-8.751z" transform="translate(-44.088 -7.602)" style="fill:#002b51"/>
                                </g>
                                <g id="그룹_2212" data-name="그룹 2212" transform="translate(6.544 2.332)">
                                    <path id="패스_3500" data-name="패스 3500" d="M92.145 24.892a16.609 16.609 0 0 0-15.5-10.964c-8.738 0-14.8 6.582-14.8 12.5a8.469 8.469 0 0 0 .337 2.621A5.546 5.546 0 0 1 62 27.7c0-6.158 6.166-10.425 12.5-10.425a15.533 15.533 0 0 1 15.541 15.534 17.122 17.122 0 0 1-9.494 15.342 18.847 18.847 0 0 0 12.424-17.72 18.594 18.594 0 0 0-.826-5.539z" transform="translate(-61.84 -13.928)" style="fill:#da0021"/>
                                </g>
                            </g>
                        </g>
                    </g>
                </g>
            </g>
            <g id="그룹_2218" data-name="그룹 2218" transform="translate(92.128 18.948)">
                <path id="패스_3501" data-name="패스 3501" class="cls-3" d="M182.383 45.356h-7.969v-6.737h1.807v1.739h4.339v-1.739h1.823zm-6.939 1.233h1.84v1.486h8.154v-1.487h1.84v6.551h-11.834zm5.116-4.66h-4.339v1.891h4.339zm4.879 7.614h-8.154v2.077h8.154zm-.033-11.16h1.874v7.158h-1.874v-2.887h-2.2v-1.638h2.2z" transform="translate(-174.414 -38.383)"/>
                <path id="패스_3502" data-name="패스 3502" class="cls-3" d="M219.978 50.311v-1.655h13.843v1.655h-5.993v3.883h-1.874v-3.883zm1.114-10.739h11.616v6.72h-11.616zm9.759 1.638h-7.919v3.444h7.919z" transform="translate(-203.183 -39.134)"/>
                <path id="패스_3503" data-name="패스 3503" class="cls-3" d="M266.454 48.31H280.3v1.654h-6v3.883h-1.873v-3.882h-5.977zm2.954-7.362h7.919v-1.907h1.857v7.243h-11.616v-7.243h1.839zm7.919 1.62h-7.919v2.077h7.919z" transform="translate(-232.527 -38.798)"/>
            </g>
        </g>
        <path id="패스_3987" data-name="패스 3987" class="cls-4" d="M10.94-2.74a5.755 5.755 0 0 1-2.72.66c-2.96 0-4.48-1.56-4.48-3.86a5.727 5.727 0 0 1 5.96-5.98 4.592 4.592 0 0 1 3.86 1.58l1.88-1.56c-1.16-1.48-3.06-2.3-5.62-2.3-5.28 0-8.7 3.68-8.7 8.42C1.12-2.22 3.72.2 7.92.2a8.519 8.519 0 0 0 5.22-1.72l1.14-5.64h-2.46zM25-10.68l-1.12 5.54c-.42 2.08-1.68 3.08-3.46 3.08-1.42 0-2.12-.7-2.12-1.94a4.056 4.056 0 0 1 .08-.82l1.18-5.86h-2.5l-1.18 5.92a5.958 5.958 0 0 0-.14 1.28c0 2.34 1.56 3.62 3.86 3.62a5.22 5.22 0 0 0 3.62-1.32L22.98 0h2.38l2.14-10.68zm12.7 0-.3 1.58a4.013 4.013 0 0 0-3.64-1.7 5.957 5.957 0 0 0-6.02 6.24 4.47 4.47 0 0 0 4.7 4.7 5.1 5.1 0 0 0 3.48-1.24L35.7 0h2.38l2.12-10.68zM33.08-2a2.522 2.522 0 0 1-2.82-2.68 3.707 3.707 0 0 1 3.68-4A2.522 2.522 0 0 1 36.76-6a3.707 3.707 0 0 1-3.68 4zm11.5-7.3.28-1.38h-2.38L40.36 0h2.5l1.06-5.26c.44-2.22 1.74-3.22 3.7-3.22a3.105 3.105 0 0 1 .62.06l.46-2.38a5.038 5.038 0 0 0-4.12 1.5zm13.88-5.54-1.14 5.7a4.055 4.055 0 0 0-3.64-1.66 5.941 5.941 0 0 0-6 6.24 4.46 4.46 0 0 0 4.7 4.7 5.148 5.148 0 0 0 3.46-1.24L55.62 0H58l2.96-14.84zM53.02-2a2.522 2.522 0 0 1-2.82-2.68 3.692 3.692 0 0 1 3.66-4A2.522 2.522 0 0 1 56.68-6a3.692 3.692 0 0 1-3.66 4z" transform="translate(159 119)"/>
        <g id="타원_469" data-name="타원 469" transform="translate(141 103)" style="fill:none;stroke:#111;stroke-width:2px">
            <circle cx="8.5" cy="8.5" r="8.5" style="stroke:none"/>
            <circle cx="8.5" cy="8.5" r="7.5" style="fill:none"/>
        </g>
        <path id="패스_3995" data-name="패스 3995" class="cls-4" d="m9.5-9.612-1 4.986a3.027 3.027 0 0 1-3.118 2.772c-1.278 0-1.908-.63-1.908-1.746a3.65 3.65 0 0 1 .072-.738l1.062-5.274h-2.25L1.3-4.284a5.362 5.362 0 0 0-.13 1.152c0 2.106 1.4 3.258 3.474 3.258A4.7 4.7 0 0 0 7.9-1.062L7.686 0h2.142l1.926-9.612z" transform="translate(144 116.5)"/>
        <path id="사각형_6884" data-name="사각형 6884" class="cls-4" transform="rotate(11 -473.269 850.936)" d="M0 0h2.2v12H0z"/>
    </g>
</svg>
