<svg xmlns="http://www.w3.org/2000/svg" width="80" height="17" viewBox="0 0 80 17">
    <defs>
        <style>
            .cls-2{fill:#111}
        </style>
    </defs>
    <g id="U-guard_black" transform="translate(-1170 -142)">
        <path id="사각형_16744" data-name="사각형 16744" transform="translate(1170 142)" style="fill:transparent" d="M0 0h80v17H0z"/>
        <g id="그룹_6012" data-name="그룹 6012">
            <path id="패스_3987" data-name="패스 3987" class="cls-2" d="M10.94-2.74a5.755 5.755 0 0 1-2.72.66c-2.96 0-4.48-1.56-4.48-3.86a5.727 5.727 0 0 1 5.96-5.98 4.592 4.592 0 0 1 3.86 1.58l1.88-1.56c-1.16-1.48-3.06-2.3-5.62-2.3-5.28 0-8.7 3.68-8.7 8.42C1.12-2.22 3.72.2 7.92.2a8.519 8.519 0 0 0 5.22-1.72l1.14-5.64h-2.46zM25-10.68l-1.12 5.54c-.42 2.08-1.68 3.08-3.46 3.08-1.42 0-2.12-.7-2.12-1.94a4.056 4.056 0 0 1 .08-.82l1.18-5.86h-2.5l-1.18 5.92a5.958 5.958 0 0 0-.14 1.28c0 2.34 1.56 3.62 3.86 3.62a5.22 5.22 0 0 0 3.62-1.32L22.98 0h2.38l2.14-10.68zm12.7 0-.3 1.58a4.013 4.013 0 0 0-3.64-1.7 5.957 5.957 0 0 0-6.02 6.24 4.47 4.47 0 0 0 4.7 4.7 5.1 5.1 0 0 0 3.48-1.24L35.7 0h2.38l2.12-10.68zM33.08-2a2.522 2.522 0 0 1-2.82-2.68 3.707 3.707 0 0 1 3.68-4A2.522 2.522 0 0 1 36.76-6a3.707 3.707 0 0 1-3.68 4zm11.5-7.3.28-1.38h-2.38L40.36 0h2.5l1.06-5.26c.44-2.22 1.74-3.22 3.7-3.22a3.105 3.105 0 0 1 .62.06l.46-2.38a5.038 5.038 0 0 0-4.12 1.5zm13.88-5.54-1.14 5.7a4.055 4.055 0 0 0-3.64-1.66 5.941 5.941 0 0 0-6 6.24 4.46 4.46 0 0 0 4.7 4.7 5.148 5.148 0 0 0 3.46-1.24L55.62 0H58l2.96-14.84zM53.02-2a2.522 2.522 0 0 1-2.82-2.68 3.692 3.692 0 0 1 3.66-4A2.522 2.522 0 0 1 56.68-6a3.692 3.692 0 0 1-3.66 4z" transform="translate(1188.54 158)"/>
            <g id="패스_4019" data-name="패스 4019" style="fill:#eff2f7">
                <path d="M8.5 2A6.507 6.507 0 0 0 2 8.5C2 12.084 4.916 15 8.5 15S15 12.084 15 8.5 12.084 2 8.5 2m0-2a8.5 8.5 0 1 1 0 17 8.5 8.5 0 0 1 0-17z" style="fill:#111;stroke:none" transform="translate(1170.54 142)"/>
            </g>
            <path id="패스_3995" data-name="패스 3995" class="cls-2" d="m9.5-9.612-1 4.986a3.027 3.027 0 0 1-3.118 2.772c-1.278 0-1.908-.63-1.908-1.746a3.65 3.65 0 0 1 .072-.738l1.062-5.274h-2.25L1.3-4.284a5.362 5.362 0 0 0-.13 1.152c0 2.106 1.4 3.258 3.474 3.258A4.7 4.7 0 0 0 7.9-1.062L7.686 0h2.142l1.926-9.612z" transform="translate(1173.54 155.5)"/>
            <path id="사각형_6884" data-name="사각형 6884" class="cls-2" transform="rotate(11 -161.014 6216.527)" d="M0 0h2.2v12H0z"/>
        </g>
    </g>
</svg>
