<svg xmlns="http://www.w3.org/2000/svg" width="44" height="44.25" viewBox="0 0 44 44.25">
    <defs>
        <style>
            .cls-2{fill:#f57175}.cls-2,.cls-3{stroke:#fff;stroke-width:1.5px}.cls-3,.cls-5{fill:none}.cls-3{stroke-linecap:round}.cls-4{stroke:none}
        </style>
    </defs>
    <g id="ic_notice_emergency" transform="translate(-3274 -842.75)">
        <g id="사각형_16063" data-name="사각형 16063" class="cls-2">
            <path class="cls-4" d="M15 0a15 15 0 0 1 15 15v18.7a.3.3 0 0 1-.3.3H.3a.3.3 0 0 1-.3-.3V15A15 15 0 0 1 15 0z" transform="translate(3281 853)"/>
            <path class="cls-5" d="M15 .75A14.25 14.25 0 0 1 29.25 15v18.071a.179.179 0 0 1-.179.179H.929a.179.179 0 0 1-.179-.179V15A14.25 14.25 0 0 1 15 .75z" transform="translate(3281 853)"/>
        </g>
        <g id="사각형_16065" data-name="사각형 16065" class="cls-2" transform="translate(3291 866)">
            <rect class="cls-4" width="10" height="17" rx="4"/>
            <rect class="cls-5" x=".75" y=".75" width="8.5" height="15.5" rx="3.25"/>
        </g>
        <g id="사각형_16064" data-name="사각형 16064" class="cls-2">
            <path class="cls-4" d="M0 0h30v5H0z" transform="translate(3281 875.5)"/>
            <path class="cls-5" d="M.75.75h28.5v3.5H.75z" transform="translate(3281 875.5)"/>
        </g>
        <path id="선_369" data-name="선 369" class="cls-3" transform="translate(3296 843.5)" d="M0 0v6"/>
        <path id="선_370" data-name="선 370" class="cls-3" transform="translate(3284 847.768)" d="m0 0 3.5 4.732"/>
        <path id="선_368" data-name="선 368" class="cls-3" transform="translate(3304.5 847.768)" d="M3.5 0 0 4.732"/>
        <g id="사각형_16062" data-name="사각형 16062" class="cls-2" transform="translate(3277 879)">
            <rect class="cls-4" width="38" height="8" rx="2"/>
            <rect class="cls-5" x=".75" y=".75" width="36.5" height="6.5" rx="1.25"/>
        </g>
    </g>
</svg>
