<svg xmlns="http://www.w3.org/2000/svg" width="238" height="220" viewBox="0 0 238 220">
    <defs>
        <clipPath id="clip-path">
            <path id="사각형_16738" data-name="사각형 16738" class="cls-1" transform="translate(634 395)" d="M0 0h238v220H0z"/>
        </clipPath>
        <clipPath id="clip-path-2">
            <path id="사각형_16189" data-name="사각형 16189" class="cls-2" d="M0 0h249.877v207.92H0z"/>
        </clipPath>
        <clipPath id="clip-path-3">
            <path id="패스_11057" data-name="패스 11057" class="cls-2" d="M77.12 162.434 55.241 79.769h164.344l21.88 82.665z" transform="translate(-55.241 -79.769)"/>
        </clipPath>
        <clipPath id="clip-path-4">
            <path id="사각형_16190" data-name="사각형 16190" class="cls-2" d="M0 0h74.368v82.664H0z"/>
        </clipPath>
        <clipPath id="clip-path-5">
            <path id="사각형_16191" data-name="사각형 16191" class="cls-2" d="M0 0h53.402v33.451H0z"/>
        </clipPath>
        <clipPath id="clip-path-6">
            <path id="사각형_16197" data-name="사각형 16197" class="cls-2" d="M0 0h69.574v79.408H0z"/>
        </clipPath>
        <clipPath id="clip-path-7">
            <path id="패스_11170" data-name="패스 11170" class="cls-2" d="M25.5 45.584c1.841 6.871 8.749 12.442 15.43 12.442s10.6-5.57 8.762-12.442-8.745-12.442-15.425-12.442-10.6 5.571-8.763 12.442" transform="translate(-25.05 -33.142)"/>
        </clipPath>
        <filter id="패스_11171" x="-4.806" y="89.42" width="88.878" height="98.409" filterUnits="userSpaceOnUse">
            <feOffset dx="3" dy="3"/>
            <feGaussianBlur stdDeviation="3" result="blur"/>
            <feFlood flood-opacity=".102"/>
            <feComposite operator="in" in2="blur"/>
            <feComposite in="SourceGraphic"/>
        </filter>
        <filter id="합치기_138" x="66.667" y="14.176" width="75.864" height="82.927" filterUnits="userSpaceOnUse">
            <feOffset dx="-3" dy="3"/>
            <feGaussianBlur stdDeviation="3" result="blur-2"/>
            <feFlood flood-opacity=".161"/>
            <feComposite operator="in" in2="blur-2"/>
            <feComposite in="SourceGraphic"/>
        </filter>
        <filter id="패스_11230" x="163.95" y="67.306" width="59.09" height="42.703" filterUnits="userSpaceOnUse">
            <feOffset dx="-3" dy="3"/>
            <feGaussianBlur stdDeviation="3" result="blur-3"/>
            <feFlood flood-opacity=".102"/>
            <feComposite operator="in" in2="blur-3"/>
            <feComposite in="SourceGraphic"/>
        </filter>
        <style>
            .cls-1{fill:#fff}.cls-2{fill:none}.cls-4{fill:rgba(255,255,255,.1)}.cls-5{fill:#758394}.cls-7{fill:#c8d3e2}.cls-21{fill:#f2f2f2}.cls-22{fill:#e7e8eb}.cls-25{fill:#154071}.cls-29{fill:#e3e3e3}.cls-41{fill:#bdc4d3}.cls-42{fill:#a8b0c0}.cls-45{fill:#adbed1}.cls-49{fill:#213c82}
        </style>
    </defs>
    <g id="ic_login_image" transform="translate(-634 -395)" style="clip-path:url(#clip-path)">
        <g id="그룹_5904" data-name="그룹 5904" transform="translate(395.602 28.129)">
            <circle id="타원_969" data-name="타원 969" class="cls-4" cx="51.516" cy="51.516" r="51.516" transform="translate(373.088 367.293)"/>
            <circle id="타원_970" data-name="타원 970" class="cls-4" cx="42.684" cy="42.684" r="42.684" transform="translate(381.919 376.125)"/>
            <circle id="타원_971" data-name="타원 971" class="cls-4" cx="31.891" cy="31.891" r="31.891" transform="translate(392.713 386.919)"/>
        </g>
        <g id="그룹_5901" data-name="그룹 5901" transform="translate(257.351 81.518)">
            <g id="그룹_5860" data-name="그룹 5860" transform="translate(354.15 316.258)">
                <path id="패스_11033" data-name="패스 11033" class="cls-5" d="m165.028 127.667-9.1 108.142s-.953 6.552 3.923 6.567c8.018.019 39.9 0 39.9 0s-6.034-1.365-5.961-4.435c.086-3.619 10.626-111.3 10.626-111.3z" transform="translate(-31.332 -25.459)"/>
                <path id="패스_11034" data-name="패스 11034" class="cls-1" d="M203 239.926c-1.577 0-32.033.1-39.841 0-3.4-.042-4-3.026-4.028-4.954a9.693 9.693 0 0 1 .1-1.61l.24-2.811.6-7.164.532-6.329.685-8.134.576-6.865 6.462-76.843 39.4-1.023s-4.441 45.062-7.582 77.865c-.351 3.654-.685 7.16-.992 10.431q-.15 1.566-.29 3.06c-.292 3.1-.559 5.954-.789 8.469q-.183 1.989-.336 3.688c-.4 4.424-.639 7.248-.639 7.786a4.57 4.57 0 0 0 .08.879c.642 3.437 5.223 3.554 5.815 3.554" transform="translate(-31.991 -24.967)"/>
                <path id="패스_11248" data-name="패스 11248" class="cls-5" d="M0 0h52.654v1.976H0z" transform="translate(136.332 214.953)"/>
                <path id="패스_11036" data-name="패스 11036" d="M255.742 201.688H66.6L28.546 59.064l3.995-4.794h189.14l38.056 142.762z" transform="translate(-5.739 -10.91)" style="fill:#152436"/>
                <path id="패스_11037" data-name="패스 11037" class="cls-1" d="M260.742 196.894H71.6L33.546 54.271h189.14z" transform="translate(-6.744 -10.91)"/>
                <path id="패스_11038" data-name="패스 11038" class="cls-7" d="M190.738 208.162c1.715-1.889 4.963-1.733 7.257.349s2.764 5.3 1.05 7.189-4.963 1.733-7.257-.348-2.764-5.3-1.05-7.19" transform="translate(-37.405 -41.581)"/>
                <path id="패스_11039" data-name="패스 11039" d="M68.288 165.9 40.042 59.271h180.876L249.162 165.9z" transform="translate(-8.05 -11.915)" style="fill:#bdc8d3"/>
                <path id="패스_11040" data-name="패스 11040" d="M68.288 165.9 40.042 59.271h180.876L249.162 165.9z" transform="translate(-8.05 -11.915)" style="fill:#4e545b"/>
                <path id="패스_11041" data-name="패스 11041" d="m42.14 67.247-2.1-7.976h180.878l2.1 7.976z" transform="translate(-8.05 -11.915)" style="fill:#d9e1e9"/>
                <path id="패스_11042" data-name="패스 11042" class="cls-5" d="m76.175 237.573 3.995-4.794h189.14l-3.995 4.794z" transform="translate(-15.314 -46.796)"/>
                <path id="패스_11043" data-name="패스 11043" class="cls-5" d="m66.6 201.688 3.995-4.794L32.541 54.271l-3.995 4.794z" transform="translate(-5.739 -10.91)"/>
                <path id="패스_11044" data-name="패스 11044" d="M46.676 63.53a1.157 1.157 0 0 1 .72-1.47 1.141 1.141 0 0 1 .43-.062 2.093 2.093 0 0 1 1.918 1.532 1.158 1.158 0 0 1-.72 1.47 1.143 1.143 0 0 1-.431.062 2.093 2.093 0 0 1-1.918-1.532" transform="translate(-9.371 -12.463)" style="fill:#e02e3c"/>
                <path id="패스_11045" data-name="패스 11045" d="M53.048 63.53a1.157 1.157 0 0 1 .72-1.47A1.141 1.141 0 0 1 54.2 62a2.093 2.093 0 0 1 1.918 1.532A1.158 1.158 0 0 1 55.4 65a1.143 1.143 0 0 1-.431.062 2.093 2.093 0 0 1-1.918-1.532" transform="translate(-10.652 -12.463)" style="fill:#fcae2e"/>
                <path id="패스_11046" data-name="패스 11046" d="M59.908 63.53a1.157 1.157 0 0 1 .72-1.47 1.141 1.141 0 0 1 .43-.062 2.093 2.093 0 0 1 1.918 1.532 1.158 1.158 0 0 1-1.151 1.532 2.093 2.093 0 0 1-1.917-1.532" transform="translate(-12.031 -12.463)" style="fill:#35a689"/>
                <path id="패스_11047" data-name="패스 11047" d="M77.223 161.935 55.344 79.271h164.344l21.879 82.665z" transform="translate(-11.126 -15.936)" style="fill:#d9e4f3"/>
                <g id="그룹_5848" data-name="그룹 5848" style="opacity:.2">
                    <g id="그룹_5847" data-name="그룹 5847">
                        <g id="그룹_5846" data-name="그룹 5846" style="clip-path:url(#clip-path-2)">
                            <g id="그룹_5845" data-name="그룹 5845" transform="translate(44.136 63.733)">
                                <g id="그룹_5844" data-name="그룹 5844" style="clip-path:url(#clip-path-3)">
                                    <path id="패스_11048" data-name="패스 11048" class="cls-1" d="m230.584 0 13.765 82.8-52.356 17.154L149.7 48.351l-6.985-25.477z" transform="translate(-72.826 -63.733)"/>
                                    <path id="패스_11049" data-name="패스 11049" class="cls-1" d="m142.922 56.976-6.994-26.088 2.748-.737 6.838 25.5 43.732 53.6 14.393 31.273 18.807 55.866 41.35-23.639 9.922-2.661-14.644-54.618 13 .356-.074 2.848-9.187-.252L277.2 172.1l-12.315 3.3-44.034 25.174-19.887-59.075-14.154-30.728z" transform="translate(-71.461 -69.794)"/>
                                    <path id="패스_11050" data-name="패스 11050" class="cls-1" d="m51.363 161.678-.737-2.748 10.426-2.795 5.957.661 45.336-11.5 58.139-16.9.793 2.733-58.183 16.911-45.885 11.644-5.938-.666z" transform="translate(-54.313 -89.544)"/>
                                    <path id="패스_11051" data-name="패스 11051" class="cls-1" d="m257.7 106.344 3.3 9.371L270.569 131l14.73 52.755-9.1 2.582-38.123 21.333-17.549-52.335-15.147-31.875z" transform="translate(-85.423 -85.111)"/>
                                    <path id="패스_11052" data-name="패스 11052" class="cls-1" d="M197.438 164.247c-2.711-7.68-13.273-28.387-13.273-28.387l-47.7 13.98 14.278 46.95-21.653 37.049 28.692 1.393 59.482-12.632s-17.6-52.043-19.826-58.349" transform="translate(-70.087 -91.045)"/>
                                    <path id="패스_11053" data-name="패스 11053" class="cls-1" d="m117.884 154.556-4.183 1.226-45.611 11.711-7.122-.556-8.082 2.2 4.931 65.746 52.125 2.53 21.8-37.3z" transform="translate(-54.768 -94.803)"/>
                                    <path id="패스_11054" data-name="패스 11054" class="cls-1" d="M67.4 74.146 81.324 37.6 0 53.992l21.375 45.382 47.218-12.235z" transform="translate(-44.136 -71.292)"/>
                                    <path id="패스_11055" data-name="패스 11055" class="cls-1" d="m63.8 148.768 14.626-3.855-3.768-41.013L28.6 115.833l16.5 35.04 12.105-3.012z" transform="translate(-49.885 -84.62)"/>
                                    <path id="패스_11056" data-name="패스 11056" class="cls-1" d="m93.838 129.489 78.013-20.563-41.913-51.289-6.78-26.093-20.058 4.044L88.688 73.4z" transform="translate(-61.965 -70.074)"/>
                                </g>
                            </g>
                        </g>
                    </g>
                </g>
                <g id="그룹_5851" data-name="그룹 5851" transform="translate(47.414 63.335)" style="opacity:.05">
                    <g id="그룹_5850" data-name="그룹 5850">
                        <g id="그룹_5849" data-name="그룹 5849" style="clip-path:url(#clip-path-4)">
                            <path id="패스_11058" data-name="패스 11058" d="M81.223 161.935 59.344 79.271h52.488l21.879 82.665z" transform="translate(-59.344 -79.271)" style="fill:#101010"/>
                        </g>
                    </g>
                </g>
                <path id="패스_11059" data-name="패스 11059" class="cls-21" d="M77.223 161.935 55.344 79.271h52.488l21.879 82.665z" transform="translate(-11.126 -15.936)"/>
                <path id="패스_11060" data-name="패스 11060" class="cls-22" d="m64.069 112.2-4.86-18.392H111.7l4.86 18.392z" transform="translate(-11.903 -18.858)"/>
                <g id="그룹_5854" data-name="그룹 5854" transform="translate(61.474 98.737)" style="opacity:.5">
                    <g id="그룹_5853" data-name="그룹 5853">
                        <g id="그룹_5852" data-name="그룹 5852" style="clip-path:url(#clip-path-5)">
                            <path id="패스_11061" data-name="패스 11061" class="cls-22" d="m78.048 127.451-1.107-3.871h44.6l1 3.871z" transform="translate(-76.941 -123.58)"/>
                            <path id="패스_11062" data-name="패스 11062" class="cls-22" d="m80.884 136.707-1.107-3.871h44.6l1 3.871z" transform="translate(-77.511 -125.441)"/>
                            <path id="패스_11063" data-name="패스 11063" class="cls-22" d="m83.059 145.962-1.107-3.871h44.6l1 3.871z" transform="translate(-77.949 -127.301)"/>
                            <path id="패스_11064" data-name="패스 11064" class="cls-22" d="m85.433 155.218-1.107-3.871h44.6l1 3.871z" transform="translate(-78.426 -129.162)"/>
                            <path id="패스_11065" data-name="패스 11065" class="cls-22" d="M87.807 164.473 86.7 160.6h44.6l1 3.871z" transform="translate(-78.903 -131.023)"/>
                        </g>
                    </g>
                </g>
                <path id="패스_11066" data-name="패스 11066" class="cls-25" d="m79.367 112.56-.748-3.086a.4.4 0 0 1 .386-.5h36.411a.4.4 0 0 1 .386.3l.748 3.086a.4.4 0 0 1-.386.5H79.753a.4.4 0 0 1-.386-.3" transform="translate(-15.802 -21.906)"/>
                <path id="패스_11067" data-name="패스 11067" class="cls-22" d="m70.285 89.787-.323-1.209a.259.259 0 0 1 .251-.327h11.661a.259.259 0 0 1 .25.193l.323 1.209a.26.26 0 0 1-.251.327H70.535a.26.26 0 0 1-.251-.193" transform="translate(-14.063 -17.741)"/>
                <path id="패스_11068" data-name="패스 11068" class="cls-1" d="m204.84 96.2-.7-2.885a.373.373 0 0 1 .361-.47h34.041a.373.373 0 0 1 .36.276L239.6 96a.374.374 0 0 1-.36.471H205.2a.374.374 0 0 1-.361-.277" transform="translate(-41.036 -18.664)"/>
                <path id="패스_11069" data-name="패스 11069" class="cls-1" d="m258.72 114.181-3.17-12a.373.373 0 0 1 .361-.47h2.881a.374.374 0 0 1 .361.276l3.17 12a.374.374 0 0 1-.36.471h-2.881a.375.375 0 0 1-.361-.277" transform="translate(-51.371 -20.447)"/>
                <path id="패스_11070" data-name="패스 11070" class="cls-21" d="M77.223 161.935 55.344 79.271h7.746l21.879 82.665z" transform="translate(-11.126 -15.936)"/>
                <path id="패스_11071" data-name="패스 11071" d="M87.162 161.935 65.283 79.271h-.244l21.879 82.665z" transform="translate(-13.075 -15.936)" style="fill:#d3d3d3"/>
                <path id="패스_11072" data-name="패스 11072" class="cls-22" d="m91.81 157.03-8.8-33.45h-.244l8.8 33.45z" transform="translate(-16.638 -24.843)"/>
                <path id="패스_11073" data-name="패스 11073" class="cls-22" d="m113.7 157.03-8.8-33.45h-.244l8.8 33.45z" transform="translate(-21.039 -24.843)"/>
                <path id="패스_11074" data-name="패스 11074" d="m56.937 85.333-1.593-6.062h164.344l1.593 6.062z" transform="translate(-11.126 -15.936)" style="fill:#16519e"/>
                <path id="패스_11075" data-name="패스 11075" class="cls-22" d="m61.766 91.627-.809-3.058h3.354l.809 3.058z" transform="translate(-12.254 -17.805)"/>
                <path id="패스_11076" data-name="패스 11076" d="m60.047 84.208-.809-3.058h3.354l.809 3.058z" transform="translate(-11.909 -16.314)" style="fill:#ffe51f"/>
                <path id="패스_11077" data-name="패스 11077" class="cls-29" d="m228.292 83.965-.809-3.058h11.344l.809 3.058z" transform="translate(-45.731 -16.265)"/>
                <path id="패스_11078" data-name="패스 11078" class="cls-29" d="m244.364 83.965-.809-3.058H254.9l.809 3.058z" transform="translate(-48.962 -16.265)"/>
                <path id="패스_11079" data-name="패스 11079" class="cls-25" d="m244.627 83.786-.682-2.578h5.255l.683 2.578z" transform="translate(-49.04 -16.325)"/>
                <path id="패스_11080" data-name="패스 11080" class="cls-25" d="m240.5 95.96-.6-2.259a.16.16 0 0 1 .155-.2h4.925a.16.16 0 0 1 .154.119l.6 2.259a.16.16 0 0 1-.155.2h-4.925a.16.16 0 0 1-.154-.119" transform="translate(-48.227 -18.796)"/>
                <path id="패스_11081" data-name="패스 11081" class="cls-22" d="m63.659 98.8-.809-3.06h3.35l.809 3.058z" transform="translate(-12.635 -19.247)"/>
                <path id="패스_11082" data-name="패스 11082" class="cls-22" d="m65.577 105.968-.809-3.058h3.354l.809 3.058z" transform="translate(-13.02 -20.688)"/>
                <path id="패스_11083" data-name="패스 11083" class="cls-22" d="m67.455 113.138-.809-3.058H70l.809 3.058z" transform="translate(-13.398 -22.129)"/>
                <path id="패스_11084" data-name="패스 11084" class="cls-22" d="m69.31 120.309-.809-3.058h3.354l.809 3.058z" transform="translate(-13.771 -23.571)"/>
                <path id="패스_11085" data-name="패스 11085" class="cls-1" d="M251.495 90.847c1.27-1.4 3.676-1.283 5.375.258s2.046 3.925.777 5.324-3.675 1.283-5.374-.258-2.047-3.925-.777-5.324" transform="translate(-50.404 -18.066)"/>
                <path id="패스_11149" data-name="패스 11149" d="m-4571.655-22596.506 15.643 19.98-19.6 5.273 3.781 4.977 28.16 14.926 7.164 18.707" transform="translate(4712.427 22679.33)" style="stroke:#4264d0;stroke-dasharray:1;fill:none"/>
                <path id="패스_11150" data-name="패스 11150" d="M1304.012 1172.309h-38.163l-.7-2.623h38.163z" transform="translate(-1098.819 -1031.593)" style="fill:#30b59c"/>
                <path id="패스_11151" data-name="패스 11151" d="M1465.409 1172.309h-15.639l-.7-2.623h15.639z" transform="translate(-1241.862 -1031.593)" style="fill:#4264d0"/>
            </g>
            <g id="그룹_5861" data-name="그룹 5861" transform="translate(378.495 409.402)">
                <g transform="translate(-1.85 -95.92)" style="filter:url(#패스_11171)">
                    <path id="패스_11171-2" data-name="패스 11171" d="m0 0 1.753 6.541.039.146 19.485 72.722h48.3L50.088 6.686l-.047-.177L48.3 0z" transform="translate(1.85 95.92)" style="stroke:#c8d0dc;fill:#fff"/>
                </g>
                <g id="그룹_5864" data-name="그룹 5864">
                    <path id="패스_11152" data-name="패스 11152" d="m1.94 7.241 19.485 72.722h48.3L50.237 7.241z" transform="translate(-.149 -.554)" style="fill:#eaeff5"/>
                    <path id="패스_11153" data-name="패스 11153" d="m0 0 1.753 6.541h48.3L48.3 0z" style="fill:#e2e5e9"/>
                    <path id="패스_11154" data-name="패스 11154" d="m1.888 7.049.048.178h48.3l-.047-.178z" transform="translate(-.145 -.539)" style="fill:#a3a3a2"/>
                    <g id="그룹_5861-2" data-name="그룹 5861">
                        <g id="그룹_5860-2" data-name="그룹 5860" style="clip-path:url(#clip-path-6)">
                            <path id="패스_11155" data-name="패스 11155" class="cls-1" d="M10.662 20.839h38.362a1.156 1.156 0 0 1 1.05.828l14.568 54.369a.613.613 0 0 1-.606.827H25.674a1.159 1.159 0 0 1-1.05-.827L10.057 21.667a.614.614 0 0 1 .606-.828" transform="translate(-.768 -1.595)"/>
                            <path id="패스_11156" data-name="패스 11156" d="M18.718 10.185h18.077a4.923 4.923 0 0 1 4.462 3.515 2.609 2.609 0 0 1-2.576 3.519H20.6a4.921 4.921 0 0 1-4.457-3.519 2.609 2.609 0 0 1 2.576-3.518" transform="translate(-1.226 -.78)" style="fill:#cfd6e2"/>
                            <path id="패스_11157" data-name="패스 11157" class="cls-7" d="M14.529 23.962H47.67a.945.945 0 0 1 .857.675L60.411 68.99a.5.5 0 0 1-.494.676H26.775a.945.945 0 0 1-.856-.676L14.035 24.637a.5.5 0 0 1 .494-.675" transform="translate(-1.072 -1.834)"/>
                            <path id="패스_11158" data-name="패스 11158" d="M5.366 3.347a.485.485 0 0 0-.725.138l-.01.026a.476.476 0 0 1-.713.166.8.8 0 0 1-.318-.317v-.012a.852.852 0 0 1-.087-.218.862.862 0 0 1 .945-1.04 1.922 1.922 0 0 1 1.514.881l-.01-.017a2.014 2.014 0 0 0-2.25-.972 1.167 1.167 0 0 0-.66 1.48A1.921 1.921 0 0 0 4.766 4.9a.911.911 0 0 0 1-.823.771.771 0 0 0-.4-.727" transform="translate(-.229 -.145)" style="fill:#0e233d"/>
                            <path id="패스_11159" data-name="패스 11159" d="M6.03 3.019a1.918 1.918 0 0 0-1.53-.911.847.847 0 0 0-.864 1.256.545.545 0 0 1-.045-.112c-.138-.512.28-.866.806-.866a1.8 1.8 0 0 1 1.634 1.289 1.079 1.079 0 0 1-.447 1.275 1.169 1.169 0 0 0 .638-1.472 1.9 1.9 0 0 0-.192-.46" transform="translate(-.269 -.162)" style="fill:#ce0019"/>
                            <path id="패스_11160" data-name="패스 11160" class="cls-41" d="M28.917 14.462h-5.768l-.247-.921h5.769z" transform="translate(-1.753 -1.037)"/>
                            <path id="패스_11161" data-name="패스 11161" class="cls-41" d="M39.383 14.462h-8.826l-.247-.921h8.827z" transform="translate(-2.32 -1.037)"/>
                            <path id="패스_11162" data-name="패스 11162" class="cls-42" d="M32.265 3.943H8.528l-.247-.921h23.737z" transform="translate(-.634 -.232)"/>
                            <path id="패스_11163" data-name="패스 11163" class="cls-42" d="M53.626 77.587H38.5l-.247-.921h15.126z" transform="translate(-2.928 -5.869)"/>
                            <path id="패스_11164" data-name="패스 11164" d="m21.095 14.032.183.682-.762-.6a.877.877 0 0 0 .043-.613 1.442 1.442 0 0 0-1.306-1.03.764.764 0 0 0-.753 1.029 1.442 1.442 0 0 0 1.306 1.03.806.806 0 0 0 .534-.183l.765.6h-.755l.09.334h1.326l-.335-1.253zm-2.261-.532a.516.516 0 0 1 .509-.7.974.974 0 0 1 .882.7.516.516 0 0 1-.509.7.974.974 0 0 1-.882-.7" transform="translate(-1.413 -.955)" style="fill:#2153a0"/>
                        </g>
                    </g>
                    <g id="그룹_5863" data-name="그룹 5863" transform="translate(23.133 30.605)">
                        <g id="그룹_5862" data-name="그룹 5862" style="clip-path:url(#clip-path-7)">
                            <path id="패스_11165" data-name="패스 11165" class="cls-45" d="M34.267 33.143c6.68 0 13.589 5.57 15.43 12.442s-2.082 12.442-8.763 12.442S27.346 52.456 25.5 45.585s2.082-12.442 8.763-12.442" transform="translate(-25.05 -33.142)"/>
                            <path id="패스_11166" data-name="패스 11166" class="cls-7" d="M36.4 38.851a5.779 5.779 0 0 1 5.238 4.131 3.063 3.063 0 0 1-3.024 4.132 5.779 5.779 0 0 1-5.238-4.132 3.063 3.063 0 0 1 3.024-4.131" transform="translate(-25.677 -33.579)"/>
                            <path id="패스_11167" data-name="패스 11167" class="cls-7" d="m48.807 58.071-4.968-8.262H34.2l-.539 8.262 9.391 3.676z" transform="translate(-25.71 -34.418)"/>
                            <path id="패스_11168" data-name="패스 11168" class="cls-7" d="M43.13 62.143a.507.507 0 0 1-.183-.036l-9.392-3.676a.58.58 0 0 1-.379-.532l.539-8.262a.312.312 0 0 1 .332-.3h9.638a.6.6 0 0 1 .489.3l4.969 8.263a.368.368 0 0 1-.065.516l-5.756 3.674a.353.353 0 0 1-.192.053M34.094 57.8l8.77 3.433 5.326-3.4-4.584-7.633H34.59z" transform="translate(-25.672 -34.382)"/>
                            <path id="패스_11169" data-name="패스 11169" class="cls-45" d="M40.934 58.025c-6.669 0-13.591-5.581-15.428-12.442s2.094-12.441 8.76-12.441S47.859 38.723 49.7 45.584s-2.1 12.441-8.766 12.441M34.5 34.006c-6.194 0-9.84 5.194-8.13 11.577s8.139 11.579 14.33 11.579 9.841-5.194 8.13-11.578-8.138-11.578-14.33-11.578" transform="translate(-25.051 -33.142)"/>
                        </g>
                    </g>
                </g>
            </g>
            <g id="그룹_5866" data-name="그룹 5866" transform="translate(451.199 328.869)">
                <g transform="translate(-74.547 -15.391)" style="filter:url(#합치기_138)" id="그룹_5865" data-name="그룹 5865">
                    <path id="합치기_138-2" data-name="합치기 138" d="M37.147 63.629a3.018 3.018 0 0 1-.82-.644L28.14 53.77C15.728 50.545 4.4 39.956.994 27.388-3.1 12.261 5.839 0 20.965 0s30.708 12.261 34.8 27.388c3.4 12.568-2.193 23.156-12.857 26.382l-3.2 9.215a1.443 1.443 0 0 1-1.439.943 2.426 2.426 0 0 1-1.122-.299z" transform="translate(79.23 20.68)" style="stroke:transparent;stroke-miterlimit:10;fill:#4264d0"/>
                </g>
                <path id="패스_11264" data-name="패스 11264" d="M55.767 27.387C51.671 12.261 36.088 0 20.963 0S-3.1 12.261.994 27.387C4.4 39.949 15.722 50.529 28.128 53.756l8.2 9.229a2.982 2.982 0 0 0 .818.644c1.092.58 2.242.291 2.568-.644l3.2-9.229c10.659-3.227 16.256-13.807 12.853-26.369" transform="translate(4.683 5.474)" style="fill:#153863"/>
                <path id="패스_11265" data-name="패스 11265" class="cls-1" d="M31.625 14.623c-8.76 0-14.145 6.988-12 15.576s11.01 15.575 19.77 15.575 14.145-6.987 12-15.575-11.012-15.576-19.77-15.576m8.072 16.2c.119 3.047-1.433 4.51-4.143 4.51a3.636 3.636 0 0 1-3.937-2.846 5.9 5.9 0 0 1-.178-1.2L31.1 22.71h-3.8l.366 8.671a8.485 8.485 0 0 0 .254 1.874c.853 3.423 3.7 5.3 7.2 5.3a6.466 6.466 0 0 0 5.009-1.914l.065 1.183.02.525h.009l.235 4.258a12.437 12.437 0 0 1-1.81.144c-7.094 0-14.27-5.632-16-12.554s2.642-12.556 9.736-12.556a15.491 15.491 0 0 1 6.775 1.659l.294 5.326zm4.477 10.526-1.016-19.371a16.441 16.441 0 0 1 5.215 8.222c1.21 4.853-.581 9.062-4.2 11.151" transform="translate(-1.819 1.109)"/>
            </g>
            <g id="그룹_5869" data-name="그룹 5869" transform="translate(552.6 386.788)">
                <g transform="translate(-175.95 -73.31)" style="filter:url(#패스_11230)">
                    <path id="패스_11230-2" data-name="패스 11230" class="cls-1" d="M.67 0H33.8a1.221 1.221 0 0 1 1.106.872l6.152 22.96a.646.646 0 0 1-.638.872H7.289a1.22 1.22 0 0 1-1.106-.872L.031.872A.647.647 0 0 1 .67 0" transform="translate(175.95 73.31)"/>
                </g>
                <path id="패스_11231" data-name="패스 11231" d="M.67 0H33.8a1.221 1.221 0 0 1 1.106.872l1.246 4.65H1.278L.031.872A.647.647 0 0 1 .67 0" style="fill:#00327b"/>
                <path id="패스_11232" data-name="패스 11232" class="cls-1" d="m41.086 4.171-2.229-1.758.113-.154 2.23 1.758z" transform="translate(-7.812 -.454)"/>
                <path id="패스_11233" data-name="패스 11233" class="cls-1" d="m39.589 4.171-.2-.154 1.287-1.758.2.154z" transform="translate(-7.92 -.454)"/>
                <path id="패스_11234" data-name="패스 11234" class="cls-49" d="M10.7 14.732h1.744a.608.608 0 0 1 .552.436l.467 1.743a.323.323 0 0 1-.319.436H11.4a.61.61 0 0 1-.553-.436l-.467-1.743a.323.323 0 0 1 .319-.436" transform="translate(-2.085 -2.962)"/>
                <path id="패스_11235" data-name="패스 11235" class="cls-49" d="M12.068 19.825h1.744a.608.608 0 0 1 .552.436L14.832 22a.323.323 0 0 1-.319.436h-1.744a.61.61 0 0 1-.553-.436l-.467-1.743a.323.323 0 0 1 .319-.436" transform="translate(-2.359 -3.985)"/>
                <path id="패스_11236" data-name="패스 11236" class="cls-49" d="M13.432 24.917h1.744a.608.608 0 0 1 .552.436L16.2 27.1a.323.323 0 0 1-.319.436h-1.748a.61.61 0 0 1-.553-.436l-.467-1.743a.323.323 0 0 1 .319-.436" transform="translate(-2.633 -5.009)"/>
                <path id="패스_11237" data-name="패스 11237" class="cls-1" d="m12.136 16.8-.677-.545.115-.153.478.385.48-.679.2.152z" transform="translate(-2.304 -3.179)"/>
                <path id="패스_11238" data-name="패스 11238" class="cls-1" d="m13.5 21.9-.677-.545.115-.153.478.385.48-.679.2.152z" transform="translate(-2.578 -4.202)"/>
                <path id="패스_11239" data-name="패스 11239" class="cls-1" d="m14.866 26.988-.677-.545.115-.153.478.385.48-.679.2.152z" transform="translate(-2.853 -5.226)"/>
                <path id="패스_11240" data-name="패스 11240" class="cls-1" d="M5.519 9.639h1.744a.608.608 0 0 1 .552.436l.467 1.743a.323.323 0 0 1-.319.436H6.22a.61.61 0 0 1-.553-.436L5.2 10.075a.323.323 0 0 1 .319-.436" transform="translate(-1.043 -1.938)"/>
                <path id="패스_11241" data-name="패스 11241" d="M7.964 12.255H6.22a.61.61 0 0 1-.552-.436L5.2 10.075a.323.323 0 0 1 .319-.436h1.744a.611.611 0 0 1 .553.436l.467 1.743a.323.323 0 0 1-.319.436m-2.406-2.47a.215.215 0 0 0-.213.291l.467 1.743a.406.406 0 0 0 .368.291h1.745a.216.216 0 0 0 .213-.291l-.468-1.743a.407.407 0 0 0-.37-.291z" transform="translate(-1.043 -1.938)" style="fill:#b3bcd0"/>
                <path id="패스_11242" data-name="패스 11242" d="M9.678 16.4H8.552l-.3-1.127h.218l.243.908h.907z" transform="translate(-1.659 -3.071)" style="fill:#8a94a2"/>
                <path id="패스_11243" data-name="패스 11243" class="cls-1" d="M16.579 3.95H3.624l-.355-1.322h12.956z" transform="translate(-.658 -.528)"/>
                <path id="패스_11244" data-name="패스 11244" class="cls-41" d="M29.726 11.639H9.982l-.247-.924h19.743z" transform="translate(-1.957 -2.154)"/>
                <path id="패스_11245" data-name="패스 11245" class="cls-41" d="M19.589 16.728h-4.435l-.248-.924h4.435z" transform="translate(-2.997 -3.177)"/>
                <path id="패스_11246" data-name="패스 11246" class="cls-41" d="M20.95 21.808h-4.435l-.248-.924H20.7z" transform="translate(-3.271 -4.198)"/>
                <path id="패스_11247" data-name="패스 11247" class="cls-41" d="M22.319 26.913h-4.436l-.248-.924h4.435z" transform="translate(-3.546 -5.224)"/>
            </g>
        </g>
    </g>
</svg>
