<svg xmlns="http://www.w3.org/2000/svg" width="268" height="124" viewBox="0 0 268 124">
    <defs>
        <style>
            .cls-2{fill:#f3f5f9}.cls-13,.cls-2,.cls-5{stroke:#4264d0}.cls-6{fill:#98aae3}.cls-5{fill:#bbc7ec}.cls-7,.cls-8,.cls-9{fill:#4264d0}.cls-7{opacity:.2}.cls-8{opacity:.4}.cls-9{opacity:.1}.cls-13,.cls-15{fill:none}.cls-12{fill:#93a6e3}.cls-13{stroke-miterlimit:10}.cls-14{stroke:none}
        </style>
    </defs>
    <g id="ic_mobile_setting" data-name="ic_mobile setting" transform="translate(-712 -347)">
        <path id="사각형_16222" data-name="사각형 16222" transform="translate(712 347)" style="fill:transparent" d="M0 0h268v124H0z"/>
        <g id="사각형_10057" data-name="사각형 10057" class="cls-2" transform="translate(780 365)">
            <rect class="cls-14" width="132" height="85" rx="6"/>
            <rect class="cls-15" x=".5" y=".5" width="131" height="84" rx="5.5"/>
        </g>
        <g id="사각형_10059" data-name="사각형 10059" style="fill:#98aae3;stroke:#4264d0">
            <path class="cls-14" d="M0 0h30v18.5H0z" transform="translate(831 447)"/>
            <path class="cls-15" d="M.5.5h29V18H.5z" transform="translate(831 447)"/>
        </g>
        <circle id="타원_702" data-name="타원 702" cx="30" cy="30" r="30" transform="translate(816 371)" style="opacity:.5;fill:#bbc7ec"/>
        <g id="사각형_10058" data-name="사각형 10058" class="cls-5">
            <path class="cls-14" d="M0 0h132v10a6 6 0 0 1-6 6H6a6 6 0 0 1-6-6V0z" transform="translate(780 434)"/>
            <path class="cls-15" d="M1 .5h130a.5.5 0 0 1 .5.5v9a5.5 5.5 0 0 1-5.5 5.5H6A5.5 5.5 0 0 1 .5 10V1A.5.5 0 0 1 1 .5z" transform="translate(780 434)"/>
        </g>
        <g id="사각형_10060" data-name="사각형 10060" class="cls-5">
            <path class="cls-14" d="M3 0h58a3 3 0 0 1 3 3v4H0V3a3 3 0 0 1 3-3z" transform="translate(814 464)"/>
            <path class="cls-15" d="M3 .5h58A2.5 2.5 0 0 1 63.5 3v3a.5.5 0 0 1-.5.5H1A.5.5 0 0 1 .5 6V3A2.5 2.5 0 0 1 3 .5z" transform="translate(814 464)"/>
        </g>
        <rect id="사각형_16075" data-name="사각형 16075" class="cls-6" width="15.851" height="2.439" rx="1.219" transform="translate(838 369.561)"/>
        <g id="그룹_5884" data-name="그룹 5884" transform="translate(-19 -254)">
            <circle id="타원_964" data-name="타원 964" class="cls-7" cx="5" cy="5" r="5" transform="translate(965 657)"/>
            <circle id="타원_962" data-name="타원 962" class="cls-8" cx="5" cy="5" r="5" transform="translate(941 657)"/>
            <circle id="타원_965" data-name="타원 965" class="cls-9" cx="5" cy="5" r="5" transform="translate(989 657)"/>
        </g>
        <g id="그룹_5885" data-name="그룹 5885" transform="translate(712 403)">
            <circle id="타원_964-2" data-name="타원 964" class="cls-7" cx="5" cy="5" r="5" transform="translate(24)"/>
            <circle id="타원_962-2" data-name="타원 962" class="cls-8" cx="5" cy="5" r="5" transform="translate(48)"/>
            <circle id="타원_965-2" data-name="타원 965" class="cls-9" cx="5" cy="5" r="5"/>
        </g>
        <g id="그룹_5897" data-name="그룹 5897" transform="translate(824 347.699)">
            <g id="사각형_16219" data-name="사각형 16219" class="cls-2">
                <rect class="cls-14" width="43.078" height="79.6" rx="6"/>
                <rect class="cls-15" x=".5" y=".5" width="42.078" height="78.6" rx="5.5"/>
            </g>
            <g id="패스_11263" data-name="패스 11263" style="fill:#bbc7ec">
                <path class="cls-14" d="M37.459 14.674H5.619A5.125 5.125 0 0 1 .5 9.555V3.5h42.078v6.055a5.125 5.125 0 0 1-5.12 5.12z" transform="translate(0 64.426)"/>
                <path d="M1 4v5.555a4.624 4.624 0 0 0 4.619 4.62h31.84a4.624 4.624 0 0 0 4.619-4.62V4H1M0 3h43.078v6.555a5.619 5.619 0 0 1-5.62 5.62H5.619A5.619 5.619 0 0 1 0 9.554V3z" style="fill:#4264d0;stroke:none" transform="translate(0 64.426)"/>
            </g>
            <rect id="사각형_16221" data-name="사각형 16221" class="cls-6" width="14.844" height="2.284" rx="1.142" transform="translate(14.117 4.271)"/>
            <g id="타원_968" data-name="타원 968" transform="translate(18.729 70.235)" style="fill:none;stroke:#4264d0">
                <circle class="cls-14" cx="2.809" cy="2.809" r="2.809"/>
                <circle class="cls-15" cx="2.809" cy="2.809" r="2.309"/>
            </g>
        </g>
        <g id="그룹_5896" data-name="그룹 5896" transform="translate(839.869 359.705)">
            <path id="패스_11259" data-name="패스 11259" class="cls-12" d="M34.57 20.821a2.1 2.1 0 0 1-1.485-3.585 2.1 2.1 0 0 0 0-2.969l-3.424-3.425a2.1 2.1 0 0 0-2.97 0 2.1 2.1 0 0 1-3.584-1.485 2.1 2.1 0 0 0-2.1-2.1h-4.843a2.1 2.1 0 0 0-2.1 2.1 2.1 2.1 0 0 1-3.584 1.485 2.1 2.1 0 0 0-2.97 0l-3.425 3.425a2.1 2.1 0 0 0 0 2.969A2.1 2.1 0 0 1 2.6 20.821a2.1 2.1 0 0 0-2.1 2.1v4.843a2.1 2.1 0 0 0 2.1 2.1 2.1 2.1 0 0 1 1.485 3.585 2.1 2.1 0 0 0 0 2.969l3.424 3.425a2.1 2.1 0 0 0 2.97 0 2.1 2.1 0 0 1 3.584 1.485 2.1 2.1 0 0 0 2.1 2.1h4.842a2.1 2.1 0 0 0 2.1-2.1 2.1 2.1 0 0 1 3.584-1.485 2.1 2.1 0 0 0 2.97 0l3.424-3.425a2.1 2.1 0 0 0 0-2.969 2.1 2.1 0 0 1 1.485-3.585 2.1 2.1 0 0 0 2.1-2.1v-4.843a2.1 2.1 0 0 0-2.1-2.1M18.585 32.978a7.636 7.636 0 1 1 7.635-7.635 7.635 7.635 0 0 1-7.635 7.635" transform="translate(-.5 -.393)"/>
            <path id="패스_11260" data-name="패스 11260" class="cls-12" d="M41.905 8.1a1.176 1.176 0 0 1-.832-2.007 1.176 1.176 0 0 0 0-1.663l-1.917-1.923a1.176 1.176 0 0 0-1.663 0 1.176 1.176 0 0 1-2.008-.831A1.176 1.176 0 0 0 34.31.5H31.6a1.176 1.176 0 0 0-1.175 1.176 1.176 1.176 0 0 1-2.008.831 1.176 1.176 0 0 0-1.663 0l-1.921 1.918a1.176 1.176 0 0 0 0 1.663A1.176 1.176 0 0 1 24 8.1a1.177 1.177 0 0 0-1.176 1.176v2.711A1.176 1.176 0 0 0 24 13.16a1.176 1.176 0 0 1 .832 2.007 1.176 1.176 0 0 0 0 1.663l1.917 1.918a1.176 1.176 0 0 0 1.663 0 1.177 1.177 0 0 1 2.008.832 1.175 1.175 0 0 0 1.18 1.176h2.71a1.175 1.175 0 0 0 1.175-1.175 1.177 1.177 0 0 1 2.008-.832 1.176 1.176 0 0 0 1.663 0l1.917-1.918a1.176 1.176 0 0 0 0-1.663 1.176 1.176 0 0 1 .832-2.007 1.176 1.176 0 0 0 1.176-1.176V9.272A1.177 1.177 0 0 0 41.905 8.1m-8.952 6.8a4.276 4.276 0 1 1 4.276-4.276 4.276 4.276 0 0 1-4.276 4.276" transform="translate(.791 -.5)"/>
            <path id="패스_11261" data-name="패스 11261" class="cls-13" d="M21.006 7.257h-4.842a2.1 2.1 0 0 0-2.1 2.1 2.1 2.1 0 0 1-3.584 1.485 2.1 2.1 0 0 0-2.97 0l-3.425 3.425a2.1 2.1 0 0 0 0 2.969A2.1 2.1 0 0 1 2.6 20.821a2.1 2.1 0 0 0-2.1 2.1v4.843a2.1 2.1 0 0 0 2.1 2.1 2.1 2.1 0 0 1 1.485 3.585 2.1 2.1 0 0 0 0 2.969l3.424 3.425a2.1 2.1 0 0 0 2.97 0 2.1 2.1 0 0 1 3.584 1.485 2.1 2.1 0 0 0 2.1 2.1h4.842a2.1 2.1 0 0 0 2.1-2.1 2.1 2.1 0 0 1 3.584-1.485 2.1 2.1 0 0 0 2.97 0l3.424-3.425a2.1 2.1 0 0 0 0-2.969 2.1 2.1 0 0 1 1.485-3.585 2.1 2.1 0 0 0 2.1-2.1v-4.432m-18.083 9.646a7.636 7.636 0 1 1 7.635-7.635 7.635 7.635 0 0 1-7.635 7.635z" transform="translate(-.5 -.393)"/>
            <path id="패스_11262" data-name="패스 11262" class="cls-13" d="M41.905 8.1a1.176 1.176 0 0 1-.832-2.007 1.176 1.176 0 0 0 0-1.663l-1.917-1.923a1.176 1.176 0 0 0-1.663 0 1.176 1.176 0 0 1-2.008-.831A1.176 1.176 0 0 0 34.31.5H31.6a1.176 1.176 0 0 0-1.175 1.176 1.176 1.176 0 0 1-2.008.831 1.176 1.176 0 0 0-1.663 0l-1.921 1.918a1.176 1.176 0 0 0 0 1.663A1.176 1.176 0 0 1 24 8.1a1.177 1.177 0 0 0-1.176 1.176v2.711A1.176 1.176 0 0 0 24 13.16a1.176 1.176 0 0 1 .832 2.007 1.176 1.176 0 0 0 0 1.663l1.917 1.918a1.176 1.176 0 0 0 1.663 0 1.177 1.177 0 0 1 2.008.832 1.175 1.175 0 0 0 1.18 1.176h2.71a1.175 1.175 0 0 0 1.175-1.175 1.177 1.177 0 0 1 2.008-.832 1.176 1.176 0 0 0 1.663 0l1.917-1.918a1.176 1.176 0 0 0 0-1.663 1.176 1.176 0 0 1 .832-2.007 1.176 1.176 0 0 0 1.176-1.176V9.272A1.177 1.177 0 0 0 41.905 8.1zm-8.952 6.8a4.276 4.276 0 1 1 4.276-4.276 4.276 4.276 0 0 1-4.276 4.276z" transform="translate(.791 -.5)"/>
        </g>
    </g>
</svg>
